<svg xmlns="http://www.w3.org/2000/svg" xmlns:xlink="http://www.w3.org/1999/xlink" id="Back_ground_3" data-name="Back ground 3" viewBox="0 0 356.69 335.36"><defs><style>.cls-1,.cls-4{fill:#9f52d5}.cls-2,.cls-5{fill:#fff}.cls-2{opacity:.4}.cls-2,.cls-4{isolation:isolate}.cls-3{fill:#6c3c96}.cls-4{opacity:.5}.cls-6{opacity:.3;fill:url(#linear-gradient)}</style><linearGradient id="linear-gradient" x1="1766.54" x2="1725.21" y1="796.42" y2="562" gradientTransform="matrix(0.71, 0.7, -0.7, 0.71, 961.34, -1388.74)" gradientUnits="userSpaceOnUse"><stop offset="0" stop-color="#fff" stop-opacity="0"/><stop offset=".01" stop-color="#fcfafe" stop-opacity=".03"/><stop offset=".11" stop-color="#e6d3f4" stop-opacity=".26"/><stop offset=".21" stop-color="#d3b0ec" stop-opacity=".46"/><stop offset=".31" stop-color="#c393e5" stop-opacity=".62"/><stop offset=".42" stop-color="#b67bdf" stop-opacity=".76"/><stop offset=".54" stop-color="#ac69db" stop-opacity=".87"/><stop offset=".66" stop-color="#a55cd7" stop-opacity=".94"/><stop offset=".81" stop-color="#a054d6" stop-opacity=".99"/><stop offset="1" stop-color="#9f52d5"/></linearGradient></defs><g id="Layer_20" data-name="Layer 20"><path d="M1730.33,190.79a95.61,95.61,0,0,1,13.1-23.78c7.12-9.41,25.85-34.15,56.21-35.2,26.3-.91,55.53,16.18,65.61,44.67,11.65,33-9.53,60.78-11.08,62.6a76.36,76.36,0,0,1-22.28,17.8Z" class="cls-1" transform="translate(-1559.46 -128.58)"/><path d="M1730.33,190.79a93,93,0,0,1,13.1-23.78c7.14-9.34,28-36.73,61.6-35.21,25,1.14,50.85,18.07,60.22,44.68,11.62,33-9.29,60.49-11.08,62.6a76.36,76.36,0,0,1-22.28,17.8Z" class="cls-2" transform="translate(-1559.46 -128.58)"/><path d="M1662.58,134a10.57,10.57,0,0,0-2.37,5.07c-3.89,20.32,38.85,65.64,102.12,106.81s125.22,64,146.32,54.87a12.59,12.59,0,0,0,4.86-3.44c14.22-16.71-30.41-66.82-99.71-111.93S1676.79,117.32,1662.58,134Z" class="cls-3" transform="translate(-1559.46 -128.58)"/><path d="M1660.21,139.1c-3.89,20.32,38.85,65.64,102.12,106.81s125.22,64,146.32,54.87c3.93-20.3-38.78-65.67-102.08-106.86S1681.35,130,1660.21,139.1Z" class="cls-4" transform="translate(-1559.46 -128.58)"/><path d="M1733.11,202.46a3.73,3.73,0,0,0-.82,1.71c-1.34,6.92,13.18,22.32,34.67,36.3s42.52,21.73,49.71,18.62a4.47,4.47,0,0,0,1.65-1.18c1.59-1.87,1-5-1.36-8.87-4.76-7.86-16.77-18.84-32.53-29.1s-31.24-17.16-41.21-18.9C1738.31,200.16,1734.7,200.59,1733.11,202.46Z" class="cls-1" transform="translate(-1559.46 -128.58)"/><path d="M1743.22,201c4.72,7.9,16.73,18.89,32.5,29.15S1807,247.35,1817,249c-4.76-7.86-16.77-18.84-32.53-29.1S1753.19,202.78,1743.22,201Z" class="cls-2" transform="translate(-1559.46 -128.58)"/><path d="M1785,198.24c-2.37,2.79-.17,7.73,4.91,11s11.12,3.73,13.49.94.17-7.72-4.91-11S1787.32,195.45,1785,198.24Z" class="cls-1" transform="translate(-1559.46 -128.58)"/><path d="M1731.19,171.1c-2.37,2.78-.17,7.72,4.91,11s11.13,3.73,13.5.94.17-7.72-4.91-11S1733.56,168.31,1731.19,171.1Z" class="cls-1" transform="translate(-1559.46 -128.58)"/><path d="M1685.33,163.41c-2.37,2.78-.17,7.72,4.91,11s11.13,3.73,13.5.94.17-7.72-4.91-11S1687.7,160.62,1685.33,163.41Z" class="cls-1" transform="translate(-1559.46 -128.58)"/><path d="M1849.26,244.69c-2.38,2.79-8.42,2.36-13.5-.94s-7.28-8.25-4.91-11,8.42-2.36,13.5.95S1851.63,241.9,1849.26,244.69Z" class="cls-1" transform="translate(-1559.46 -128.58)"/><path d="M1870.85,280.9c-2.37,2.79-8.41,2.37-13.49-.94s-7.28-8.25-4.91-11,8.41-2.36,13.49.95S1873.22,278.11,1870.85,280.9Z" class="cls-1" transform="translate(-1559.46 -128.58)"/><path d="M1820.06,146.33a1.62,1.62,0,0,0,.53.37,59.89,59.89,0,0,1,13.56,8.16,2.4,2.4,0,0,0,2.92-.25,1.53,1.53,0,0,0,.21-2.44,63.1,63.1,0,0,0-14.31-8.6,2.54,2.54,0,0,0-2.88.83A1.46,1.46,0,0,0,1820.06,146.33Z" class="cls-5" transform="translate(-1559.46 -128.58)"/><path d="M1860.61,208.15a1.72,1.72,0,0,0,1.06.24,2.55,2.55,0,0,0,2.24-2c3.19-19.89-4.15-38.62-19.63-50.08a2.23,2.23,0,0,0-2.78.54,1.69,1.69,0,0,0-.07,2.55c14.65,10.85,21.6,28.54,18.59,47.31A1.4,1.4,0,0,0,1860.61,208.15Z" class="cls-5" transform="translate(-1559.46 -128.58)"/><path d="M1737.25,200.68,1559.46,315.11c19.61,39.94,43.11,64.49,62.23,79.95,69,55.82,174.26,68.88,174.3,68.89l22.33-206v-.07c0-.08-1.3-8.54-1.35-8.8-1.69-10.74-36-32.21-36-32.21-13.69-8.59-18.77-10.58-21.6-11.59A81.4,81.4,0,0,0,1737.25,200.68Z" class="cls-6" transform="translate(-1559.46 -128.58)"/></g></svg>