<svg preserveAspectRatio="none" xmlns="http://www.w3.org/2000/svg" xmlns:xlink="http://www.w3.org/1999/xlink" viewBox="0 0 1920 1080"><defs><style>.mycls-1{fill:#120a5a;}.mycls-2{fill:url(#linear-gradient);}.mycls-3{fill:url(#linear-gradient-2);}.mycls-4{fill:#4b27a9;}.mycls-5{fill:url(#linear-gradient-3);}.mycls-6{fill:url(#linear-gradient-4);}.mycls-7{fill:url(#linear-gradient-5);}.mycls-8{fill:url(#linear-gradient-6);}.mycls-9{fill:url(#linear-gradient-7);}.mycls-10{fill:url(#linear-gradient-8);}.mycls-11{fill:url(#linear-gradient-9);}.mycls-12{fill:url(#linear-gradient-10);}.mycls-13{fill:url(#linear-gradient-11);}.mycls-14{fill:url(#linear-gradient-12);}.mycls-15{fill:url(#linear-gradient-13);}.mycls-16{fill:url(#linear-gradient-14);}.mycls-17{fill:url(#linear-gradient-15);}.mycls-18{fill:url(#linear-gradient-16);}.mycls-19{fill:url(#linear-gradient-17);}.mycls-20{fill:url(#linear-gradient-18);}.mycls-21{fill:none;}.mycls-22{fill:url(#linear-gradient-19);}.mycls-23{fill:url(#linear-gradient-20);}.mycls-24,.mycls-25,.mycls-26,.mycls-27,.mycls-28{fill:#f09ca5;}.mycls-25{opacity:0.8;}.mycls-26{opacity:0.2;}.mycls-27{opacity:0.6;}.mycls-28{opacity:0.4;}</style><linearGradient id="linear-gradient" x1="1084.85" y1="363.46" x2="1084.85" y2="626.27" gradientUnits="userSpaceOnUse"><stop offset="0" stop-color="#120a5a"/><stop offset="0.24" stop-color="#4b27a9"/><stop offset="0.67" stop-color="#6b4eb8"/><stop offset="1" stop-color="#7c61c0"/></linearGradient><linearGradient id="linear-gradient-2" x1="1107.2" y1="363.46" x2="1107.2" y2="626.27" gradientUnits="userSpaceOnUse"><stop offset="0" stop-color="#4b27a9"/><stop offset="0.53" stop-color="#6444b5"/><stop offset="1" stop-color="#7c61c0"/></linearGradient><linearGradient id="linear-gradient-3" x1="1083.88" y1="626.27" x2="1083.88" y2="365.4" gradientUnits="userSpaceOnUse"><stop offset="0" stop-color="#f09ca5" stop-opacity="0"/><stop offset="0.26" stop-color="#f09ca5" stop-opacity="0.04"/><stop offset="1" stop-color="#f09ca5"/></linearGradient><linearGradient id="linear-gradient-4" x1="1075.62" y1="626.27" x2="1075.62" y2="366.85" xlink:href="#linear-gradient-3"/><linearGradient id="linear-gradient-5" x1="1092.14" y1="626.27" x2="1092.14" y2="363.7" xlink:href="#linear-gradient-3"/><linearGradient id="linear-gradient-6" x1="895.4" y1="378.52" x2="895.4" y2="626.27" xlink:href="#linear-gradient-2"/><linearGradient id="linear-gradient-7" x1="887.87" y1="434.02" x2="887.87" y2="390.91" xlink:href="#linear-gradient-3"/><linearGradient id="linear-gradient-8" x1="894.91" y1="458.79" x2="894.91" y2="415.68" xlink:href="#linear-gradient-3"/><linearGradient id="linear-gradient-9" x1="901.96" y1="484.06" x2="901.96" y2="440.94" xlink:href="#linear-gradient-3"/><linearGradient id="linear-gradient-10" x1="887.87" y1="520" x2="887.87" y2="476.89" xlink:href="#linear-gradient-3"/><linearGradient id="linear-gradient-11" x1="894.67" y1="545.26" x2="894.67" y2="502.15" xlink:href="#linear-gradient-3"/><linearGradient id="linear-gradient-12" x1="901.96" y1="570.52" x2="901.96" y2="527.41" xlink:href="#linear-gradient-3"/><linearGradient id="linear-gradient-13" x1="887.87" y1="598.7" x2="887.87" y2="555.59" xlink:href="#linear-gradient-3"/><linearGradient id="linear-gradient-14" x1="894.67" y1="623.47" x2="894.67" y2="580.36" xlink:href="#linear-gradient-3"/><linearGradient id="linear-gradient-15" x1="909.97" y1="378.52" x2="909.97" y2="626.27" xlink:href="#linear-gradient-2"/><linearGradient id="linear-gradient-16" x1="915.72" y1="379.55" x2="915.72" y2="626.27" xlink:href="#linear-gradient-2"/><linearGradient id="linear-gradient-17" x1="921.71" y1="380.63" x2="921.71" y2="626.27" xlink:href="#linear-gradient-2"/><linearGradient id="linear-gradient-18" x1="927.7" y1="381.7" x2="927.7" y2="626.27" xlink:href="#linear-gradient-2"/><linearGradient id="linear-gradient-19" x1="1024.22" y1="210.44" x2="1024.22" y2="626.27" xlink:href="#linear-gradient-2"/><linearGradient id="linear-gradient-20" x1="980.15" y1="276.02" x2="980.15" y2="626.27" xlink:href="#linear-gradient"/></defs><g id="myLayer_2" data-name="Layer 2"><g id="Layer_11" data-name="Layer 11"><g id="Layer_3-central_building" data-name="Layer 3-central building"><path class="mycls-1" d="M1093.18,430.3c-19.18-22.57-67.56-25-85.44.66h0c-12.14,2.1-18.73,5.19-13.69,9.16-1,1.59,36,6.64,44.28,9,8,2.28,11.07,7.79,10.66,10.66,0,.38-.18,3.57-.36,8.81a10.24,10.24,0,0,0-.63,19.95c-1.45,47.65-3.93,137.71-3.93,137.71h12.3s-2.47-89.83-3.92-137.53a10.24,10.24,0,0,0-.64-20.26c-.18-5.16-.3-8.3-.36-8.68-.41-2.87,4.15-8.68,12.3-11.48,8.7-3,44.83-7.14,43.46-8.2C1112,435.53,1105.34,432.3,1093.18,430.3Z"/><polygon class="mycls-1" points="959.88 428.07 936.81 430.34 936.81 436.91 936.81 438.58 936.81 443.15 936.81 444.82 936.81 449.39 936.81 451.06 936.81 463.76 936.81 465.44 936.81 470 936.81 471.68 936.81 476.24 936.81 477.92 936.81 491.75 936.81 493.42 936.81 497.99 936.81 499.67 936.81 504.23 936.81 505.91 936.81 518.61 936.81 520.28 936.81 524.85 936.81 526.52 936.81 531.09 936.81 532.76 936.81 626.27 959.88 626.27 966.69 626.27 966.69 430.72 959.88 428.07"/><polygon class="mycls-2" points="1073.44 367.82 1096.27 363.46 1096.27 626.27 1073.44 626.27 1073.44 367.82"/><polygon class="mycls-3" points="1096.27 363.46 1096.27 626.27 1118.13 626.27 1096.27 363.46"/><polygon class="mycls-4" points="1118.13 370.24 1096.27 363.46 1118.13 626.27 1118.13 370.24"/><polygon class="mycls-5" points="1081.45 366.12 1086.31 365.4 1086.31 626.27 1081.45 626.27 1081.45 366.12"/><polygon class="mycls-6" points="1073.19 367.57 1078.05 366.85 1078.05 626.27 1073.19 626.27 1073.19 367.57"/><polygon class="mycls-7" points="1089.71 364.67 1094.57 363.7 1094.57 626.27 1089.71 626.27 1089.71 364.67"/><polygon class="mycls-8" points="883.01 383.38 907.79 378.52 907.79 626.27 883.01 626.27 883.01 383.38"/><polygon class="mycls-9" points="889.65 390.91 889.65 433.17 886.09 434.02 886.09 391.83 889.65 390.91"/><polygon class="mycls-10" points="896.7 415.68 896.7 457.94 893.13 458.8 893.13 416.6 896.7 415.68"/><polygon class="mycls-11" points="903.74 440.94 903.74 483.2 900.17 484.06 900.17 441.86 903.74 440.94"/><polygon class="mycls-12" points="889.65 476.89 889.65 519.15 886.09 520 886.09 477.81 889.65 476.89"/><polygon class="mycls-13" points="896.45 502.15 896.45 544.41 892.89 545.26 892.89 503.07 896.45 502.15"/><polygon class="mycls-14" points="903.74 527.41 903.74 569.67 900.17 570.52 900.17 528.33 903.74 527.41"/><polygon class="mycls-15" points="889.65 555.59 889.65 597.85 886.09 598.7 886.09 556.5 889.65 555.59"/><polygon class="mycls-16" points="896.45 580.36 896.45 622.62 892.89 623.47 892.89 581.28 896.45 580.36"/><polyline class="mycls-4" points="932.08 382.88 907.79 378.52 907.79 626.27 932.08 626.27 932.08 382.88"/><polygon class="mycls-17" points="907.79 378.52 912.16 379.31 912.16 626.27 907.79 626.27 907.79 378.52"/><polygon class="mycls-18" points="917.91 380.34 917.91 626.27 913.53 626.27 913.53 379.55 917.91 380.34"/><polygon class="mycls-19" points="923.9 381.42 923.9 626.27 919.53 626.27 919.53 380.63 923.9 381.42"/><polygon class="mycls-20" points="929.89 382.49 929.89 626.27 925.52 626.27 925.52 381.7 929.89 382.49"/><line class="mycls-21" x1="918.25" y1="380.21" x2="917.91" y2="380.14"/><line class="mycls-21" x1="913.53" y1="379.36" x2="912.97" y2="379.25"/><line class="mycls-21" x1="924.46" y1="381.32" x2="923.9" y2="381.22"/><line class="mycls-21" x1="919.53" y1="380.43" x2="918.88" y2="380.32"/><line class="mycls-21" x1="919.53" y1="380.63" x2="917.91" y2="380.34"/><line class="mycls-21" x1="930.62" y1="382.62" x2="929.89" y2="382.49"/><line class="mycls-21" x1="925.52" y1="381.7" x2="923.9" y2="381.42"/><line class="mycls-21" x1="913.53" y1="379.55" x2="913.39" y2="379.53"/><path class="mycls-22" d="M1056.4,563.12v63.15H1004V432H992V276h4.69V262.71h13.33l1.6-31.54c-1.63-.26-2.83-1.11-2.83-2.11s1.3-1.92,3-2.13l.83-16.49.72,16.47c1.8.19,3.17,1.08,3.17,2.15s-1.28,1.9-3,2.12l.27,6.37,1.22,25.67h7.3V425.64h19.43V563.12Z"/><polygon class="mycls-23" points="1003.97 431.96 1003.97 626.27 956.33 626.27 956.33 502.88 970.91 502.88 970.91 276.02 992.04 276.02 992.04 431.96 1003.97 431.96"/><rect class="mycls-24" x="1016.57" y="307.03" width="5.83" height="3.89"/><rect class="mycls-24" x="998.57" y="298.03" width="5.83" height="3.89"/><rect class="mycls-24" x="999.03" y="321" width="11.23" height="7.49"/><rect class="mycls-24" x="992.04" y="289.38" width="5.59" height="3.89"/><rect class="mycls-24" x="970.91" y="342.33" width="5.34" height="3.89"/><rect class="mycls-24" x="972" y="296" width="10.63" height="7.73"/><rect class="mycls-24" x="970.91" y="305.03" width="9.27" height="6.97"/><rect class="mycls-25" x="1010.74" y="367" width="8.54" height="5.69"/><rect class="mycls-25" x="1014" y="359.98" width="8.4" height="5.6"/><rect class="mycls-25" x="999" y="400.49" width="11.25" height="7.5"/><rect class="mycls-25" x="1013.04" y="340.16" width="5.59" height="3.89"/><rect class="mycls-25" x="976.25" y="377.63" width="5.34" height="3.89"/><rect class="mycls-25" x="975.76" y="360.06" width="5.34" height="3.89"/><rect class="mycls-25" x="1012.76" y="422" width="5.34" height="3.95"/><rect class="mycls-26" x="1009.76" y="614" width="5.34" height="3.95"/><rect class="mycls-25" x="982" y="347.74" width="10.04" height="7.3"/><rect class="mycls-25" x="986.69" y="386.45" width="5.34" height="3.89"/><rect class="mycls-25" x="970.91" y="412.93" width="5.34" height="3.89"/><rect class="mycls-26" x="1024" y="577" width="12.83" height="8"/><rect class="mycls-27" x="1025.31" y="454.63" width="5.34" height="3.64"/><rect class="mycls-27" x="979.31" y="450.63" width="5.34" height="3.64"/><rect class="mycls-27" x="1036.49" y="462.18" width="5.34" height="3.64"/><polygon class="mycls-27" points="1003.94 462.18 1003.7 462.18 1003.7 465.82 1003.94 465.82 1009.28 465.82 1009.28 462.18 1003.94 462.18"/><polygon class="mycls-27" points="976.25 462.18 976.01 462.18 976.01 465.82 976.25 465.82 981.59 465.82 981.59 462.18 976.25 462.18"/><polygon class="mycls-27" points="992.52 431.96 992 431.96 992 439.58 992.52 439.58 1004 439.58 1004 431.96 992.52 431.96"/><polygon class="mycls-27" points="982.32 477.29 982.07 477.29 982.07 480.94 982.32 480.94 987.66 480.94 987.66 477.29 982.32 477.29"/><polygon class="mycls-28" points="987.66 492.35 987.42 492.35 987.42 496 987.66 496 993 496 993 492.35 987.66 492.35"/><polygon class="mycls-26" points="990.66 578.35 990.42 578.35 990.42 582 990.66 582 996 582 996 578.35 990.66 578.35"/><polygon class="mycls-28" points="982.59 499.96 982.07 499.96 982.07 507.74 982.59 507.74 994 507.74 994 499.96 982.59 499.96"/><polygon class="mycls-28" points="998.35 522.8 998.11 522.8 998.11 522.8 993 522.8 992.77 522.8 992.77 526.44 993 526.44 998.11 526.44 998.11 526.44 998.35 526.44 1003.69 526.44 1003.69 522.8 998.35 522.8"/><polygon class="mycls-26" points="1039.35 597.8 1039.11 597.8 1039.11 597.8 1034 597.8 1033.77 597.8 1033.77 601.44 1034 601.44 1039.11 601.44 1039.11 601.44 1039.35 601.44 1044.69 601.44 1044.69 597.8 1039.35 597.8"/><polygon class="mycls-26" points="967.35 575.8 967.11 575.8 967.11 575.8 962 575.8 961.77 575.8 961.77 579.44 962 579.44 967.11 579.44 967.11 579.44 967.35 579.44 972.69 579.44 972.69 575.8 967.35 575.8"/><polygon class="mycls-26" points="961.91 622.63 961.67 622.63 961.67 622.63 956.56 622.63 956.33 622.63 956.33 626.27 956.56 626.27 961.67 626.27 961.67 626.27 961.91 626.27 967.25 626.27 967.25 622.63 961.91 622.63"/><polygon class="mycls-28" points="993 537.37 992.77 537.37 992.77 541.01 993 541.01 998.11 541.01 998.11 537.37 993 537.37"/><polygon class="mycls-28" points="961.91 515.51 961.68 515.51 961.68 519.15 961.91 519.15 967.02 519.15 967.02 515.51 961.91 515.51"/><rect class="mycls-28" x="1004" y="484" width="14" height="8.83"/><rect class="mycls-28" x="1010.01" y="499.96" width="6.56" height="3.64"/><rect class="mycls-28" x="1035.27" y="515.51" width="6.56" height="3.64"/><rect class="mycls-28" x="1010.64" y="511" width="14.67" height="8.15"/><rect class="mycls-26" x="974.64" y="600" width="14.67" height="8.15"/><rect class="mycls-28" x="1003.7" y="537.37" width="6.56" height="3.64"/><rect class="mycls-28" x="1035.27" y="530.08" width="6.56" height="3.64"/><polygon class="mycls-28" points="987.65 551.94 987.42 551.94 987.42 555.59 987.65 555.59 992.77 555.59 992.77 551.94 987.65 551.94"/><polygon class="mycls-28" points="961.91 568.95 961.68 568.95 961.68 572.59 961.91 572.59 967.02 572.59 967.02 568.95 961.91 568.95"/><polygon class="mycls-28" points="956.57 544.66 956.33 544.66 956.33 548.3 956.57 548.3 961.68 548.3 961.68 544.66 956.57 544.66"/><polygon class="mycls-26" points="956.57 584.21 956.33 584.21 956.33 587.86 956.57 587.86 961.68 587.86 961.68 584.21 956.57 584.21"/><rect class="mycls-28" x="1010.01" y="554" width="15.97" height="8.87"/><rect class="mycls-26" x="1050.09" y="584.21" width="6.32" height="3.64"/><line class="mycls-21" x1="1022.4" y1="356" x2="1022.4" y2="355.04"/><line class="mycls-21" x1="1022.4" y1="333.5" x2="1022.4" y2="324"/><line class="mycls-21" x1="1022.4" y1="351.16" x2="1022.4" y2="346.22"/><line class="mycls-21" x1="1022.4" y1="342.33" x2="1022.4" y2="337.39"/><rect class="mycls-27" x="1031.6" y="431.93" width="10.23" height="6.68"/><rect class="mycls-27" x="1031.6" y="439.29" width="10.23" height="6.49"/><rect class="mycls-21" width="1920" height="1080"/></g></g></g></svg>